<?xml version="1.0" encoding="utf-8"?>
<svg version="1.1"
     xmlns="http://www.w3.org/2000/svg" xmlns:xlink="http://www.w3.org/1999/xlink"
     viewBox="0 0 36 36"
     width="36" height="36">
    <path fill="#ff920b" d="M15.438 13.29l-.377-.184c-.475-.231-.887.008-.924.532l-.029.417c-.152 2.183-.152 5.722 0 7.904l.029.417c.036.525.45.762.924.532l.377-.183c1.972-.961 5.045-2.73 6.865-3.953l.348-.233c.438-.294.437-.769 0-1.063l-.348-.233c-1.82-1.224-4.894-2.993-6.865-3.953zM18 4.003C10.284 4.003 4.006 10.282 4.006 18S10.283 31.997 18 31.997c3.056 0 5.96-.968 8.397-2.799a1.001 1.001 0 0 0-1.201-1.599A11.888 11.888 0 0 1 18 29.997c-6.614 0-11.995-5.383-11.995-11.998 0-6.615 5.381-11.998 11.995-11.998 6.614 0 11.995 5.383 11.995 11.998a11.93 11.93 0 0 1-2.131 6.829 1.001 1.001 0 0 0 .252 1.392.999.999 0 0 0 1.391-.252A13.92 13.92 0 0 0 31.994 18c0-7.718-6.278-13.997-13.994-13.997z"></path>
</svg>